PathFileType	4	(x/y/z)	TRC_MarkerData\Passive\Passive_Pref0003.trc
DataRate	CameraRate	NumFrames	NumMarkers	Units	OrigDataRate	OrigDataStartFrame	OrigNumFrames
240	240	7	50	mm	240	151	300
Frame#	Time	R_AC			L_AC			HEAD			STERN			C7			L_IC			R_IC			L_ASIS			R_ASIS			L_GT			R_GT			L_PSIS			R_PSIS			SACRAL			L_LAT_KNEE			L_MED_KNEE			R_LAT_KNEE			R_MED_KNEE			L_LAT_ANK			L_MED_ANK			R_LAT_ANK			R_MED_ANK			L_THIGH_PROX_POST			L_THIGH_PROX_ANT			L_THIGH_DIST_ANT			L_THIGH_DIST_POST			R_THIGH_PROX_POST			R_THIGH_PROX_ANT			R_THIGH_DIST_ANT			R_THIGH_DIST_POST			L_SHANK_PROX_POST			L_SHANK_PROX_ANT			L_SHANK_DIST_ANT			L_SHANK_DIST_POST			R_SHANK_PROX_POST			R_SHANK_PROX_ANT			R_SHANK_DIST_ANT			R_SHANK_DIST_POST			L_HEEL_LAT			L_HEEL_SUP			L_HEEL_MED			R_HEEL_LAT			R_HEEL_SUP			R_HEEL_MED			L_1ST_MET			L_5TH_MET			L_TOE			R_1ST_MET			R_5TH_MET			R_TOE			
		X1	Y1	Z1	X2	Y2	Z2	X3	Y3	Z3	X4	Y4	Z4	X5	Y5	Z5	X6	Y6	Z6	X7	Y7	Z7	X8	Y8	Z8	X9	Y9	Z9	X10	Y10	Z10	X11	Y11	Z11	X12	Y12	Z12	X13	Y13	Z13	X14	Y14	Z14	X15	Y15	Z15	X16	Y16	Z16	X17	Y17	Z17	X18	Y18	Z18	X19	Y19	Z19	X20	Y20	Z20	X21	Y21	Z21	X22	Y22	Z22	X23	Y23	Z23	X24	Y24	Z24	X25	Y25	Z25	X26	Y26	Z26	X27	Y27	Z27	X28	Y28	Z28	X29	Y29	Z29	X30	Y30	Z30	X31	Y31	Z31	X32	Y32	Z32	X33	Y33	Z33	X34	Y34	Z34	X35	Y35	Z35	X36	Y36	Z36	X37	Y37	Z37	X38	Y38	Z38	X39	Y39	Z39	X40	Y40	Z40	X41	Y41	Z41	X42	Y42	Z42	X43	Y43	Z43	X44	Y44	Z44	X45	Y45	Z45	X46	Y46	Z46	X47	Y47	Z47	X48	Y48	Z48	X49	Y49	Z49	X50	Y50	Z50	

151	0.62709	-60.017	1497.3	456.43	-69.325	1528.6	66.959	42.406	1810.7	280.84	32.279	1469.9	259.73	-111.82	1558	264.9	-94.991	1069.3	90.904	-61.735	1083	432.45	-31.595	1000.9	113.53	5.41	1010.6	382.63	-139.85	935.7	75.047	-65.361	942.07	448.1	-220.75	1034.8	232.54	-201.94	1028.9	337.82	-226	1007.7	287.39	-245.38	544.9	115.28	-232.57	550.14	251.48	90.616	548.26	414.99	105.86	551.45	288.57	-488.27	158	134.32	-497.17	162.52	213.36	230.81	102.66	372.71	253.91	141.49	279.14	-206.17	805.03	95.127	-146.85	778.03	84.816	-170.87	707.37	96.907	-228.78	735.49	106.31	-24.924	765.22	443.85	38.378	790.96	444.18	60.523	720.08	436.38	-2.5177	693.72	431.26	-263.18	494.63	123.72	-219.06	490.61	138.13	-239.94	445.22	145.23	-290.42	448.24	129.95	73.18	372.24	403.04	131.55	404.66	425.2	166.04	339.16	416.14	109.42	304.71	395.03	-576.08	97.136	134.33	-582.49	124.85	168.62	-583.48	93.466	200.55	203.86	26.647	335.47	191.42	48.726	298.39	222.42	36.302	271.22	-365.07	47.972	243.95	-374.99	45.056	138.09	-310.99	44.832	224.24	411.81	156.94	319.29	374.52	113.14	416.57	435.27	181.17	378.12
152	0.63127	-53.91	1496.1	457.45	-63.163	1527.6	68.011	48.176	1809.8	281.74	38.492	1469	260.74	-105.74	1556.8	265.93	-88.259	1068.3	91.372	-55.024	1081.7	433	-25.26	999.68	113.72	12.226	1009.7	382.94	-133.57	934.59	75.51	-58.303	941.18	448.5	-214.16	1033.5	233.11	-195.28	1027.6	338.37	-219.4	1006.4	287.93	-240.03	544.08	115.71	-227.09	549.11	251.89	98.6	547.81	414.54	113.07	551	288.27	-486.68	159.51	134.52	-495.49	164.05	213.6	234.12	101.47	371.98	257.4	139.24	278.01	-200.26	804.21	95.703	-141.02	777.06	85.193	-165.2	706.46	97.295	-223.02	734.71	106.91	-17.465	764.45	443.91	45.723	790.38	444.22	68.084	719.55	436.19	5.1054	693.04	431.05	-258.32	493.99	124.12	-214.24	489.53	138.53	-235.57	444.34	145.61	-286	447.87	130.32	79.865	371.93	403	138.72	403.84	424.54	172.53	338.02	415.31	115.41	304.05	394.79	-575.07	99.566	134.53	-581.03	127.34	168.99	-582.53	95.943	200.79	205.32	26.381	335.15	193.31	48.466	297.95	223.82	34.999	270.74	-364.59	48.107	244.03	-374.63	45.306	138.13	-310.63	44.429	224.32	415.62	152.16	317.28	377.85	109.65	414.97	439.85	176.22	375.94
153	0.63545	-47.815	1495	458.48	-57.001	1526.6	69.067	53.946	1808.9	282.63	44.709	1468.1	261.77	-99.645	1555.7	266.98	-81.475	1067.3	91.826	-48.297	1080.5	433.56	-18.893	998.45	113.91	19.044	1008.9	383.25	-127.25	933.47	75.986	-51.236	940.34	448.91	-207.55	1032.3	233.67	-188.62	1026.4	338.89	-212.79	1005.1	288.45	-234.53	543.22	116.15	-221.45	548.04	252.32	106.54	547.42	414.12	120.19	550.57	287.96	-485	161.1	134.73	-493.7	165.66	213.85	237.31	100.38	371.31	260.78	137.05	276.94	-194.27	803.36	96.294	-135.11	776.09	85.59	-159.41	705.53	97.696	-217.15	733.89	107.52	-10.014	763.74	444	53.063	789.85	444.28	75.624	719.06	436.02	12.699	692.41	430.88	-253.31	493.32	124.54	-209.27	488.42	138.93	-231.06	443.44	146	-281.45	447.47	130.71	86.516	371.68	403.02	145.85	403.09	423.92	178.96	336.95	414.52	121.36	303.47	394.61	-573.95	102.15	134.74	-579.47	129.97	169.34	-581.48	98.577	201.05	206.59	26.262	334.89	195.03	48.362	297.58	225.02	33.832	270.33	-364.09	48.261	244.11	-374.24	45.58	138.18	-310.25	44.012	224.4	419.32	147.27	315.33	381.04	106.09	413.41	444.34	171.11	373.82
154	0.63963	-41.731	1493.9	459.53	-50.841	1525.6	70.123	59.716	1808.1	283.52	50.928	1467.2	262.81	-93.55	1554.7	268.02	-74.643	1066.4	92.264	-41.561	1079.3	434.11	-12.491	997.24	114.11	25.858	1008.2	383.57	-120.87	932.34	76.476	-44.172	939.56	449.33	-200.93	1031.1	234.19	-181.98	1025.2	339.4	-206.19	1003.9	288.95	-228.85	542.32	116.6	-215.63	546.92	252.75	114.42	547.07	413.76	127.22	550.16	287.65	-483.23	162.77	134.96	-491.79	167.35	214.1	240.37	99.386	370.71	264.06	134.94	275.95	-188.19	802.48	96.9	-129.09	775.11	86.01	-153.51	704.59	98.112	-211.18	733.04	108.14	-2.5793	763.09	444.12	60.392	789.37	444.37	83.138	718.62	435.9	20.259	691.84	430.74	-248.14	492.62	124.96	-204.16	487.27	139.35	-226.42	442.51	146.39	-276.75	447.06	131.11	93.13	371.53	403.12	152.94	402.41	423.35	185.36	335.96	413.79	127.27	302.97	394.49	-572.72	104.89	134.96	-577.8	132.75	169.69	-580.34	101.38	201.32	207.7	26.282	334.7	196.6	48.406	297.28	226.06	32.813	269.98	-363.56	48.436	244.19	-373.83	45.882	138.23	-309.86	43.581	224.49	422.9	142.31	313.46	384.1	102.49	411.92	448.73	165.89	371.78
155	0.64381	-35.659	1492.8	460.59	-44.687	1524.6	71.177	65.484	1807.3	284.41	57.15	1466.4	263.87	-87.452	1553.7	269.08	-67.769	1065.5	92.687	-34.824	1078.1	434.65	-6.053	996.04	114.31	32.657	1007.6	383.89	-114.44	931.2	76.979	-37.124	938.86	449.75	-194.31	1029.9	234.69	-175.35	1024.1	339.89	-199.59	1002.6	289.43	-223	541.38	117.06	-209.63	545.74	253.19	122.26	546.8	413.44	134.18	549.8	287.36	-481.34	164.53	135.2	-489.75	169.13	214.37	243.31	98.489	370.19	267.23	132.93	275.04	-182.01	801.57	97.519	-122.98	774.12	86.454	-147.47	703.63	98.542	-205.08	732.15	108.77	4.8359	762.52	444.29	67.706	788.96	444.49	90.622	718.24	435.81	27.781	691.35	430.66	-242.81	491.89	125.4	-198.9	486.08	139.77	-221.63	441.54	146.8	-271.89	446.64	131.52	99.701	371.46	403.28	159.98	401.81	422.85	191.69	335.06	413.13	133.12	302.57	394.43	-571.38	107.8	135.2	-576.01	135.68	170.02	-579.08	104.36	201.61	208.68	26.429	334.56	198.04	48.59	297.07	226.95	31.949	269.71	-363.01	48.633	244.29	-373.39	46.214	138.28	-309.45	43.136	224.57	426.36	137.31	311.69	387.03	98.871	410.5	453.01	160.59	369.84
156	0.64799	-29.599	1491.8	461.66	-38.54	1523.7	72.226	71.252	1806.6	285.29	63.373	1465.7	264.93	-81.353	1552.7	270.14	-60.857	1064.6	93.096	-28.097	1077.1	435.19	0.42579	994.86	114.54	39.435	1007	384.23	-107.95	930.07	77.494	-30.103	938.23	450.19	-187.68	1028.7	235.15	-168.74	1023	340.35	-193.01	1001.4	289.89	-216.97	540.4	117.52	-203.44	544.52	253.62	130.04	546.59	413.19	141.06	549.51	287.08	-479.35	166.38	135.46	-487.59	171.01	214.64	246.13	97.687	369.74	270.29	131.03	274.23	-175.73	800.64	98.149	-116.75	773.13	86.925	-141.3	702.65	98.99	-198.86	731.22	109.4	12.227	762.03	444.49	75.001	788.62	444.64	98.075	717.93	435.77	35.263	690.94	430.62	-237.3	491.13	125.83	-193.47	484.85	140.19	-216.68	440.55	147.21	-266.87	446.19	131.93	106.22	371.48	403.51	166.97	401.29	422.42	197.96	334.24	412.55	138.92	302.26	394.45	-569.92	110.89	135.45	-574.08	138.78	170.34	-577.69	107.52	201.92	209.56	26.688	334.48	199.38	48.901	296.93	227.73	31.244	269.49	-362.43	48.856	244.39	-372.93	46.581	138.33	-309.03	42.678	224.65	429.69	132.32	310.04	389.83	95.245	409.19	457.16	155.24	368.02
157	0.65217	-23.551	1490.8	462.73	-32.402	1522.8	73.266	77.017	1805.9	286.17	69.596	1465.1	266	-75.253	1551.8	271.2	-53.911	1063.8	93.492	-21.389	1076.1	435.72	6.9502	993.73	114.79	46.182	1006.4	384.58	-101.41	928.93	78.021	-23.123	937.7	450.65	-181.06	1027.6	235.58	-162.16	1022	340.79	-186.44	1000.3	290.32	-210.75	539.37	117.98	-197.06	543.24	254.05	137.76	546.47	413	147.89	549.28	286.84	-477.22	168.32	135.74	-485.27	172.98	214.93	248.83	96.977	369.37	273.25	129.24	273.51	-169.35	799.67	98.789	-110.41	772.13	87.424	-134.98	701.67	99.454	-192.51	730.26	110.03	19.589	761.64	444.74	82.272	788.38	444.82	105.49	717.71	435.78	42.705	690.62	430.63	-231.63	490.34	126.27	-187.87	483.58	140.62	-211.57	439.53	147.62	-261.69	445.73	132.34	112.69	371.6	403.81	173.89	400.86	422.06	204.16	333.52	412.05	144.65	302.05	394.54	-568.31	114.17	135.72	-572	142.05	170.66	-576.18	110.88	202.24	210.36	27.043	334.46	200.62	49.327	296.86	228.4	30.696	269.34	-361.83	49.106	244.49	-372.45	46.986	138.39	-308.6	42.208	224.73	432.87	127.36	308.52	392.5	91.637	407.97	461.16	149.89	366.34
